PathFileType	4	(X/Y/Z)	Patient4_TMGait_0pt6_01_right_01.trc.trc
DataRate	CameraRate	NumFrames	NumMarkers	Units	OrigDataRate	OrigDataStartFrame	OrigNumFrames
82.352941176471	82.352941176471	4	33	mm	82.352941176471	53	       141
Frame#	Time	Sacral			L.Shoulder			Chest			R.Shoulder			Neck			R.ASIS			L.ASIS			R.Thigh.Superior			R.Thigh.Lateral			R.Thigh.Inferior			R.Patella			L.Thigh.Superior			L.Thigh.Lateral			L.Thigh.Inferior			L.Patella			L.Shank.Superior			L.Shank.Lateral			L.Shank.Inferior			R.Shank.Superior			R.Shank.Lateral			R.Shank.Inferior			R.Heel			R.Midfoot.Superior			R.Midfoot.Lateral			R.Toe			L.Heel			L.Midfoot.Lateral			L.Midfoot.Superior			L.Toe			L.Elbow			L.Wrist			R.Elbow			R.Wrist			
		X1	Y1	Z1	X2	Y2	Z2	X3	Y3	Z3	X4	Y4	Z4	X5	Y5	Z5	X6	Y6	Z6	X7	Y7	Z7	X8	Y8	Z8	X9	Y9	Z9	X10	Y10	Z10	X11	Y11	Z11	X12	Y12	Z12	X13	Y13	Z13	X14	Y14	Z14	X15	Y15	Z15	X16	Y16	Z16	X17	Y17	Z17	X18	Y18	Z18	X19	Y19	Z19	X20	Y20	Z20	X21	Y21	Z21	X22	Y22	Z22	X23	Y23	Z23	X24	Y24	Z24	X25	Y25	Z25	X26	Y26	Z26	X27	Y27	Z27	X28	Y28	Z28	X29	Y29	Z29	X30	Y30	Z30	X31	Y31	Z31	X32	Y32	Z32	X33	Y33	Z33	

53	1.221428571429	600.696270020728	1006.256692571459	505.257073900347	741.213178075192	1440.409271747470	317.910722378391	861.955000798932	1373.857884369397	467.015857899501	794.513707783239	1440.068053181955	649.825348603831	738.557127777980	1498.683563908599	475.021576721336	836.251797353996	947.058807325774	606.865739678809	803.555336560696	966.503025404188	334.020908687223	859.644709788974	741.418956381847	576.628165529118	769.346014647362	636.227129240862	635.366938639887	839.845349820371	580.152625289746	555.195717873661	832.340117736796	494.689052973942	558.710969673300	890.522594866504	784.783623819205	360.277057131986	845.899378578389	657.176102341902	283.026158053027	952.815736355720	597.801946650123	339.259667480311	972.211872311083	514.490647790039	329.970272601261	923.268524106839	440.697321636080	323.409397684176	797.666579457034	358.314934988204	285.151403639575	832.202338868895	230.365546138334	334.521971964809	805.749976779679	406.678785935807	561.742859232351	733.839529248545	300.598485229256	617.834186144061	779.230662705139	208.493281439297	551.976944304573	645.793539905203	42.848587292737	512.017516189695	818.279696422969	96.917780056987	550.514403749496	728.487944999057	36.444851326074	586.941616013267	936.675877715639	42.877480856709	578.550253250962	678.938179659478	102.650701634773	386.989854346033	736.658959224819	86.763999580559	296.166415010044	834.501159683153	129.408442462408	307.832714054462	940.879780919062	55.074314547026	258.436515466545	703.476238270797	1081.065561222399	217.283588926105	746.746933445667	825.002889728146	219.947855657866	884.298274937628	1103.377839798066	770.822901213584	1099.664344736069	958.744082909679	752.340881497220	
54	1.233571428571	600.038454871324	1006.435254834355	506.197936932119	739.884573591260	1440.506161997681	318.350934940748	861.396878821956	1373.733697691573	466.719731987149	795.059107414329	1439.930211198506	649.962846392582	738.158701522477	1498.600140339990	475.544950828493	835.625623274096	946.679885026090	606.553251008751	801.911335343544	966.532607970150	333.934655769292	856.937361732253	740.588540511685	576.153109919634	765.846866512046	636.101511022520	635.418635726741	835.218862956706	579.483444879974	554.982359482587	826.972680967617	494.202983752899	558.521344331066	888.672084640599	784.978966316463	360.375371011909	844.573975715740	657.437869487818	282.868541478151	951.003102289731	598.304773518562	340.064975754996	971.839782700124	516.852441438792	330.460521704705	926.609560669367	442.482996636721	323.132297746382	806.346830007585	353.145771312954	284.128584385060	848.450265591765	226.943578545804	332.898149408805	799.879552361532	406.307557621571	561.565772326221	727.746262442541	300.544343201571	617.731172116715	772.594535409001	208.275622075245	551.831826245681	638.483649774781	42.847106482823	511.986654858403	810.957235016886	96.856369133442	550.435383732285	721.152904130944	36.433946816004	586.887062844804	929.328072897791	42.805575957791	578.606241029649	703.075536928660	90.299588702290	384.717900622722	761.657290889498	78.120695541629	293.822175033832	857.030976775406	126.040946671490	305.693868038540	967.401002333184	57.860769810475	256.027042956995	694.568532656826	1082.186737722185	217.965287011867	729.374068800831	825.027781665718	221.055721941897	890.796355581331	1105.310734475773	770.740015463121	1112.651330667835	971.406220785387	750.283547710706	
55	1.245714285714	599.385671385881	1006.511915050740	507.068506555615	738.627648280638	1440.499613969529	318.660183009699	860.895772394251	1373.461859109907	466.272668401915	795.661318613260	1439.642403856321	649.949341159836	737.839555487580	1498.401617004150	475.912276376436	834.983501290463	946.190592138863	606.116573088069	800.243392385149	966.374582798999	333.689297927242	854.265544089714	739.652722968969	575.654841536426	762.361348115810	635.895020272302	635.418256105713	830.561585166731	578.760675475784	554.685271575315	821.572697991019	493.666175838315	558.222198237656	886.531248073227	784.758990891046	360.449125104787	842.776236204054	657.389874844195	282.613069723963	948.573616658388	598.335046266013	340.896283605823	970.823781849232	518.893381312345	331.052691674601	929.393783862045	444.212364008468	323.010411348305	815.154251420724	348.176692639254	282.845205175590	864.530588516291	224.267918542715	331.401200687686	793.968477969806	405.889681156318	561.318810344594	721.667649010307	300.434791054142	617.616588398937	765.927552086640	208.015788785981	551.636922444744	631.157574232571	42.820792533041	511.951995658419	803.592343475653	96.775142587161	550.323202114096	713.805789859503	36.408820995839	586.822510171500	921.965874221736	42.755723242312	578.655810428794	727.366238271990	79.335377193014	382.152448908197	787.045806933884	70.645975756739	291.529108246269	879.645249754900	123.602048428368	303.892789723675	993.782623668535	61.547347790478	254.699742516352	685.614931931982	1083.445259231151	218.497783757301	712.672247574223	825.531399272335	222.086330928078	896.753418769881	1107.057357522074	770.489574156501	1124.512675770290	984.137550844546	748.030344581545	
56	1.257857142857	598.724340842329	1006.511263589664	507.867961009234	737.445962061556	1440.400914308116	318.832313844273	860.452055733166	1373.059642484411	465.674097911050	796.322453421892	1439.232069812455	649.778786491279	737.598972902852	1498.107826549879	476.120506202524	834.343614666147	945.608075380122	605.560569460819	798.537529645287	966.060500893811	333.290564907914	851.626945170180	738.622538646997	575.127455421369	758.884452111640	635.621328900887	635.363917559896	825.875173612502	577.989994898142	554.308153090902	816.140780721206	493.087128558561	557.821462235026	884.116543011899	784.185974391888	360.483629064187	840.542056741675	657.085753842602	282.234234871411	945.613799183546	597.965044992647	341.656611637262	969.223463282584	520.648276357436	331.695030547084	931.639627050896	445.922074675266	323.027669764839	824.032609574320	343.541515121532	281.318722258194	880.278762614596	222.438625382413	330.085140600777	788.017327910510	405.439147445236	561.010943220781	715.590698068740	300.283180323500	617.500927930292	759.223483028656	207.725013374739	551.402430045274	623.812813331134	42.770837872144	511.917996134875	796.184587502473	96.678002962578	550.187107000107	706.445729314583	36.371097180424	586.754253187618	914.589398802714	42.731304825597	578.697385743079	751.486330877668	69.973594869880	379.370185177023	812.566220913190	64.457697184723	289.411615182990	902.133109634482	122.156086415442	302.537644140177	1019.815237135563	66.087863013316	254.686533131944	676.705394058491	1084.831753561471	218.914872871569	696.672372292576	826.431517071671	223.039327911895	902.180989066581	1108.602518525647	770.055770352078	1135.230924939597	996.836596867950	745.610293570036	
